<svg width="45" height="45" viewBox="0 0 45 45" fill="none" xmlns="http://www.w3.org/2000/svg">
<rect width="45" height="45" fill="#1E1E1E"/>
<g id="Desktop" clip-path="url(#clip0_0_1)">
<rect width="1920" height="3279" transform="translate(-470 -3133)" fill="white"/>
<g id="footer">
<g id="Group 10">
<g id="Group 7">
<circle id="Ellipse" cx="22.5" cy="22.5" r="21.5" stroke="#6B67AA" stroke-width="2"/>
<path id="Vector" d="M32.4302 17.0603C32.446 17.2823 32.446 17.5044 32.446 17.7265C32.446 24.5 27.2906 32.3045 17.868 32.3045C14.9651 32.3045 12.2684 31.4638 10 30.0044C10.4125 30.052 10.809 30.0679 11.2373 30.0679C13.6326 30.0679 15.8375 29.2589 17.5983 27.8788C15.3458 27.8312 13.4581 26.356 12.8077 24.3255C13.125 24.373 13.4422 24.4048 13.7754 24.4048C14.2354 24.4048 14.6955 24.3413 15.1237 24.2303C12.776 23.7544 11.0152 21.6922 11.0152 19.2018V19.1383C11.6973 19.519 12.4905 19.757 13.3312 19.7887C11.9511 18.8686 11.0469 17.2982 11.0469 15.5215C11.0469 14.5698 11.3007 13.6973 11.7449 12.9359C14.2671 16.045 18.0583 18.0754 22.3096 18.2976C22.2303 17.9168 22.1827 17.5203 22.1827 17.1237C22.1827 14.3001 24.4669 12 27.3064 12C28.7816 12 30.1141 12.6187 31.05 13.618C32.208 13.3959 33.3184 12.9676 34.302 12.3807C33.9212 13.5705 33.1122 14.5698 32.0494 15.2043C33.0805 15.0933 34.0799 14.8077 34.9999 14.4112C34.302 15.4264 33.4295 16.3305 32.4302 17.0603Z" fill="url(#paint0_linear_0_1)"/>
</g>
</g>
</g>
</g>
<defs>
<linearGradient id="paint0_linear_0_1" x1="15.5459" y1="30.5284" x2="27.3573" y2="12.4058" gradientUnits="userSpaceOnUse">
<stop stop-color="#6BD4FF"/>
<stop offset="1" stop-color="#9D70FF"/>
</linearGradient>
<clipPath id="clip0_0_1">
<rect width="1920" height="3279" fill="white" transform="translate(-470 -3133)"/>
</clipPath>
</defs>
</svg>
