<svg width="45" height="45" viewBox="0 0 45 45" fill="none" xmlns="http://www.w3.org/2000/svg">
<circle cx="22.5" cy="22.5" r="21.5" stroke="#6B67AA" stroke-width="2"/>
<path d="M19.3938 26.2704L19.6124 26.72C19.1046 26.9669 18.5454 26.5823 18.5454 26.0463V19.9643C18.5454 19.4207 19.1196 19.0357 19.6285 19.2986L19.3938 26.2704ZM19.3938 26.2704L19.6124 26.72L25.6779 23.7712C25.6779 23.7712 25.6779 23.7712 25.678 23.7712C26.231 23.5023 26.2396 22.7136 25.6941 22.4318C25.694 22.4318 25.694 22.4318 25.694 22.4318L19.6285 19.2987L19.3938 26.2704ZM15.6069 15.5H28.5749C30.8341 15.5 32.6818 17.3695 32.6818 19.696V26.304C32.6818 28.6305 30.8341 30.5 28.5749 30.5H15.6069C13.3477 30.5 11.5 28.6305 11.5 26.304V19.696C11.5 17.3695 13.3477 15.5 15.6069 15.5Z" fill="url(#paint0_linear_0_207)" stroke="#6B67AA"/>
<defs>
<linearGradient id="paint0_linear_0_207" x1="15.9207" y1="29.6004" x2="24.7424" y2="14.3599" gradientUnits="userSpaceOnUse">
<stop stop-color="#6BD4FF"/>
<stop offset="1" stop-color="#9D70FF"/>
</linearGradient>
</defs>
</svg>
